{
  "accessors": [
    {
      "bufferView": 2,
      "componentType": 5126,
      "count": 3764,
      "max": [
        19.597354888916016,
        40.81349182128906,
        0.691425085067749
      ],
      "min": [
        -21.85765266418457,
        -21.001262664794922,
        -39.87104034423828
      ],
      "type": "VEC3"
    },
    {
      "bufferView": 2,
      "byteOffset": 45168,
      "componentType": 5126,
      "count": 3764,
      "max": [
        0.9990078806877136,
        0.9998446106910706,
        0.9995574355125427
      ],
      "min": [
        -0.9998170137405396,
        -0.9997164607048035,
        -0.9946682453155518
      ],
      "type": "VEC3"
    },
    {
      "bufferView": 3,
      "componentType": 5126,
      "count": 3764,
      "max": [
        0.9999963045120239,
        0.9996871948242188,
        0.9998564124107361,
        1.0
      ],
      "min": [
        -0.9968225955963135,
        -0.997186005115509,
        -0.9992988109588623,
        1.0
      ],
      "type": "VEC4"
    },
    {
      "bufferView": 1,
      "componentType": 5126,
      "count": 3764,
      "max": [
        0.9948169589042664,
        0.999500036239624
      ],
      "min": [
        0.0005000000237487257,
        0.0005000000237487257
      ],
      "type": "VEC2"
    },
    {
      "bufferView": 0,
      "componentType": 5125,
      "count": 19686,
      "type": "SCALAR"
    }
  ],
  "asset": {
    "extras": {
      "author": "TatianaDevos (https://sketchfab.com/TatianaDevos)",
      "license": "CC-BY-NC-ND-4.0 (http://creativecommons.org/licenses/by-nc-nd/4.0/)",
      "source": "https://sketchfab.com/3d-models/toy-story-wheezy-504bc9c044784fe6b8ab9e314090c08d",
      "title": "Toy Story - Wheezy"
    },
    "generator": "Sketchfab-12.65.0",
    "version": "2.0"
  },
  "bufferViews": [
    {
      "buffer": 0,
      "byteLength": 78744,
      "name": "floatBufferViews",
      "target": 34963
    },
    {
      "buffer": 0,
      "byteLength": 30112,
      "byteOffset": 78744,
      "byteStride": 8,
      "name": "floatBufferViews",
      "target": 34962
    },
    {
      "buffer": 0,
      "byteLength": 90336,
      "byteOffset": 108856,
      "byteStride": 12,
      "name": "floatBufferViews",
      "target": 34962
    },
    {
      "buffer": 0,
      "byteLength": 60224,
      "byteOffset": 199192,
      "byteStride": 16,
      "name": "floatBufferViews",
      "target": 34962
    }
  ],
  "buffers": [
    {
      "byteLength": 259416,
      "uri": "scene.bin"
    }
  ],
  "images": [
    {
      "uri": "textures/Wheezy_Merged_baseColor.png"
    },
    {
      "uri": "textures/Wheezy_Merged_metallicRoughness.png"
    },
    {
      "uri": "textures/Wheezy_Merged_normal.png"
    }
  ],
  "materials": [
    {
      "doubleSided": true,
      "name": "Wheezy_Merged",
      "normalTexture": {
        "index": 2
      },
      "occlusionTexture": {
        "index": 1
      },
      "pbrMetallicRoughness": {
        "baseColorTexture": {
          "index": 0
        },
        "metallicFactor": 0.0,
        "metallicRoughnessTexture": {
          "index": 1
        },
        "roughnessFactor": 0.6
      }
    }
  ],
  "meshes": [
    {
      "name": "body_low_Wheezy_Merged_0",
      "primitives": [
        {
          "attributes": {
            "NORMAL": 1,
            "POSITION": 0,
            "TANGENT": 2,
            "TEXCOORD_0": 3
          },
          "indices": 4,
          "material": 0,
          "mode": 4
        }
      ]
    }
  ],
  "nodes": [
    {
      "children": [
        1
      ],
      "matrix": [
        1.0,
        0.0,
        0.0,
        0.0,
        0.0,
        2.220446049250313e-16,
        -1.0,
        0.0,
        0.0,
        1.0,
        2.220446049250313e-16,
        0.0,
        0.0,
        0.0,
        0.0,
        1.0
      ],
      "name": "Sketchfab_model"
    },
    {
      "children": [
        2
      ],
      "matrix": [
        1.0,
        0.0,
        0.0,
        0.0,
        0.0,
        0.0,
        1.0,
        0.0,
        0.0,
        -1.0,
        0.0,
        0.0,
        0.0,
        0.0,
        0.0,
        1.0
      ],
      "name": "94fa79030a924b16968adb1d4058d844.fbx"
    },
    {
      "children": [
        3
      ],
      "name": "RootNode"
    },
    {
      "children": [
        4
      ],
      "matrix": [
        0.547730028629303,
        0.0,
        0.0,
        0.0,
        0.0,
        0.4201976709587753,
        0.006819718584827809,
        0.0,
        0.0,
        -0.006819718584827809,
        0.4201976709587753,
        0.0,
        -1.0500496625900269,
        8.881734848022461,
        5.65606689453125,
        1.0
      ],
      "name": "body_low"
    },
    {
      "mesh": 0,
      "name": "body_low_Wheezy_Merged_0"
    }
  ],
  "samplers": [
    {
      "magFilter": 9729,
      "minFilter": 9987,
      "wrapS": 10497,
      "wrapT": 10497
    }
  ],
  "scene": 0,
  "scenes": [
    {
      "name": "Sketchfab_Scene",
      "nodes": [
        0
      ]
    }
  ],
  "textures": [
    {
      "sampler": 0,
      "source": 0
    },
    {
      "sampler": 0,
      "source": 1
    },
    {
      "sampler": 0,
      "source": 2
    }
  ]
}
