{
  "accessors": [
    {
      "bufferView": 2,
      "componentType": 5126,
      "count": 220,
      "max": [
        5.0,
        0.82669997215271,
        10.023900032043457
      ],
      "min": [
        -5.0,
        0.453000009059906,
        -9.976099967956543
      ],
      "type": "VEC3"
    },
    {
      "bufferView": 2,
      "byteOffset": 2640,
      "componentType": 5126,
      "count": 220,
      "max": [
        1.0,
        1.0,
        1.0
      ],
      "min": [
        -1.0,
        0.0,
        -1.0
      ],
      "type": "VEC3"
    },
    {
      "bufferView": 1,
      "componentType": 5126,
      "count": 220,
      "max": [
        2.7671000957489014,
        1.0
      ],
      "min": [
        -1.7670999765396118,
        0.0
      ],
      "type": "VEC2"
    },
    {
      "bufferView": 0,
      "componentType": 5125,
      "count": 390,
      "type": "SCALAR"
    },
    {
      "bufferView": 2,
      "byteOffset": 5280,
      "componentType": 5126,
      "count": 228,
      "max": [
        5.0,
        -0.5738999843597412,
        10.023900032043457
      ],
      "min": [
        -5.0,
        -0.9476000070571899,
        -9.976099967956543
      ],
      "type": "VEC3"
    },
    {
      "bufferView": 2,
      "byteOffset": 8016,
      "componentType": 5126,
      "count": 228,
      "max": [
        1.0,
        0.0,
        1.0
      ],
      "min": [
        -1.0,
        -1.0,
        -1.0
      ],
      "type": "VEC3"
    },
    {
      "bufferView": 1,
      "byteOffset": 1760,
      "componentType": 5126,
      "count": 228,
      "max": [
        1.0,
        1.0
      ],
      "min": [
        0.0,
        0.0
      ],
      "type": "VEC2"
    },
    {
      "bufferView": 0,
      "byteOffset": 1560,
      "componentType": 5125,
      "count": 414,
      "type": "SCALAR"
    },
    {
      "bufferView": 2,
      "byteOffset": 10752,
      "componentType": 5126,
      "count": 728,
      "max": [
        5.199999809265137,
        0.4779999852180481,
        10.223899841308594
      ],
      "min": [
        -5.199999809265137,
        -0.9325000047683716,
        -10.259300231933594
      ],
      "type": "VEC3"
    },
    {
      "bufferView": 2,
      "byteOffset": 19488,
      "componentType": 5126,
      "count": 728,
      "max": [
        1.0,
        1.0,
        1.0
      ],
      "min": [
        -1.0,
        -1.0,
        -1.0
      ],
      "type": "VEC3"
    },
    {
      "bufferView": 1,
      "byteOffset": 3584,
      "componentType": 5126,
      "count": 728,
      "max": [
        2.7671000957489014,
        1.0
      ],
      "min": [
        -1.7670999765396118,
        0.0
      ],
      "type": "VEC2"
    },
    {
      "bufferView": 0,
      "byteOffset": 3216,
      "componentType": 5125,
      "count": 1818,
      "type": "SCALAR"
    },
    {
      "bufferView": 2,
      "byteOffset": 28224,
      "componentType": 5126,
      "count": 28,
      "max": [
        3.4730000495910645,
        0.4779999852180481,
        -10.1358003616333
      ],
      "min": [
        -3.4730000495910645,
        -0.5587999820709229,
        -10.189599990844727
      ],
      "type": "VEC3"
    },
    {
      "bufferView": 2,
      "byteOffset": 28560,
      "componentType": 5126,
      "count": 28,
      "max": [
        0.0,
        0.0,
        -0.0
      ],
      "min": [
        0.0,
        -1.0,
        -1.0
      ],
      "type": "VEC3"
    },
    {
      "bufferView": 1,
      "byteOffset": 9408,
      "componentType": 5126,
      "count": 28,
      "max": [
        0.7010999917984009,
        0.5699999928474426
      ],
      "min": [
        0.2989000082015991,
        0.5
      ],
      "type": "VEC2"
    },
    {
      "bufferView": 0,
      "byteOffset": 10488,
      "componentType": 5125,
      "count": 72,
      "type": "SCALAR"
    },
    {
      "bufferView": 2,
      "byteOffset": 28896,
      "componentType": 5126,
      "count": 296,
      "max": [
        -1.6025999784469604,
        0.23229999840259552,
        10.276900291442871
      ],
      "min": [
        -3.1166000366210938,
        -0.11580000072717667,
        9.437700271606445
      ],
      "type": "VEC3"
    },
    {
      "bufferView": 2,
      "byteOffset": 32448,
      "componentType": 5126,
      "count": 296,
      "max": [
        0.9998860359191895,
        0.9999256134033203,
        1.0
      ],
      "min": [
        -0.9998860359191895,
        -0.9999383687973022,
        -1.0
      ],
      "type": "VEC3"
    },
    {
      "bufferView": 1,
      "byteOffset": 9632,
      "componentType": 5126,
      "count": 296,
      "max": [
        1.0348000526428223,
        1.0002000331878662
      ],
      "min": [
        -0.10890000313520432,
        0.0
      ],
      "type": "VEC2"
    },
    {
      "bufferView": 0,
      "byteOffset": 10776,
      "componentType": 5125,
      "count": 852,
      "type": "SCALAR"
    },
    {
      "bufferView": 2,
      "byteOffset": 36000,
      "componentType": 5126,
      "count": 516,
      "max": [
        1.0051000118255615,
        0.7617999911308289,
        -7.055699825286865
      ],
      "min": [
        -0.8779000043869019,
        -0.9980000257492065,
        -9.039799690246582
      ],
      "type": "VEC3"
    },
    {
      "bufferView": 2,
      "byteOffset": 42192,
      "componentType": 5126,
      "count": 516,
      "max": [
        1.0,
        1.0,
        1.0
      ],
      "min": [
        -1.0,
        -1.0,
        -1.0
      ],
      "type": "VEC3"
    },
    {
      "bufferView": 1,
      "byteOffset": 12000,
      "componentType": 5126,
      "count": 516,
      "max": [
        1.0312999486923218,
        1.0
      ],
      "min": [
        0.0,
        0.0
      ],
      "type": "VEC2"
    },
    {
      "bufferView": 0,
      "byteOffset": 14184,
      "componentType": 5125,
      "count": 2688,
      "type": "SCALAR"
    },
    {
      "bufferView": 2,
      "byteOffset": 48384,
      "componentType": 5126,
      "count": 450,
      "max": [
        2.934799909591675,
        0.30250000953674316,
        10.290800094604492
      ],
      "min": [
        2.297100067138672,
        -0.3255000114440918,
        8.660699844360352
      ],
      "type": "VEC3"
    },
    {
      "bufferView": 2,
      "byteOffset": 53784,
      "componentType": 5126,
      "count": 450,
      "max": [
        1.0,
        0.985615611076355,
        1.0
      ],
      "min": [
        -1.0,
        -0.985615611076355,
        -1.0
      ],
      "type": "VEC3"
    },
    {
      "bufferView": 1,
      "byteOffset": 16128,
      "componentType": 5126,
      "count": 450,
      "max": [
        1.0277999639511108,
        1.0
      ],
      "min": [
        -0.027799999341368675,
        0.0
      ],
      "type": "VEC2"
    },
    {
      "bufferView": 0,
      "byteOffset": 24936,
      "componentType": 5125,
      "count": 1716,
      "type": "SCALAR"
    },
    {
      "bufferView": 2,
      "byteOffset": 59184,
      "componentType": 5126,
      "count": 308,
      "max": [
        -4.633999824523926,
        0.4616999924182892,
        6.169099807739258
      ],
      "min": [
        -5.3292999267578125,
        -0.49540001153945923,
        3.618799924850464
      ],
      "type": "VEC3"
    },
    {
      "bufferView": 2,
      "byteOffset": 62880,
      "componentType": 5126,
      "count": 308,
      "max": [
        1.0,
        1.0,
        0.9848158359527588
      ],
      "min": [
        -1.0,
        -1.0,
        -0.9848158359527588
      ],
      "type": "VEC3"
    },
    {
      "bufferView": 1,
      "byteOffset": 19728,
      "componentType": 5126,
      "count": 308,
      "max": [
        0.9721999764442444,
        1.0
      ],
      "min": [
        -0.027799999341368675,
        0.0
      ],
      "type": "VEC2"
    },
    {
      "bufferView": 0,
      "byteOffset": 31800,
      "componentType": 5125,
      "count": 1296,
      "type": "SCALAR"
    }
  ],
  "asset": {
    "extras": {
      "author": "SilverG (https://sketchfab.com/SilverG)",
      "license": "CC-BY-NC-ND-4.0 (http://creativecommons.org/licenses/by-nc-nd/4.0/)",
      "source": "https://sketchfab.com/3d-models/iphone-9000373d9de74552beb727224595d5d6",
      "title": "Iphone"
    },
    "generator": "Sketchfab-12.66.0",
    "version": "2.0"
  },
  "bufferViews": [
    {
      "buffer": 0,
      "byteLength": 36984,
      "name": "floatBufferViews",
      "target": 34963
    },
    {
      "buffer": 0,
      "byteLength": 22192,
      "byteOffset": 36984,
      "byteStride": 8,
      "name": "floatBufferViews",
      "target": 34962
    },
    {
      "buffer": 0,
      "byteLength": 66576,
      "byteOffset": 59176,
      "byteStride": 12,
      "name": "floatBufferViews",
      "target": 34962
    }
  ],
  "buffers": [
    {
      "byteLength": 125752,
      "uri": "scene.bin"
    }
  ],
  "images": [
    {
      "uri": "textures/03___Default_baseColor.png"
    },
    {
      "uri": "textures/07___Default_baseColor.png"
    },
    {
      "uri": "textures/Material__40_baseColor.jpeg"
    }
  ],
  "materials": [
    {
      "doubleSided": true,
      "emissiveTexture": {
        "index": 0
      },
      "name": "03___Default",
      "pbrMetallicRoughness": {
        "baseColorTexture": {
          "index": 0
        },
        "metallicFactor": 0.0
      }
    },
    {
      "doubleSided": true,
      "emissiveTexture": {
        "index": 1
      },
      "name": "07___Default",
      "pbrMetallicRoughness": {
        "baseColorTexture": {
          "index": 1
        },
        "metallicFactor": 0.0
      }
    },
    {
      "doubleSided": true,
      "name": "08___Default",
      "pbrMetallicRoughness": {
        "baseColorFactor": [
          0.5882,
          0.5882,
          0.5882,
          1.0
        ],
        "metallicFactor": 0.0
      }
    },
    {
      "doubleSided": true,
      "emissiveTexture": {
        "index": 2
      },
      "name": "Material__40",
      "pbrMetallicRoughness": {
        "baseColorTexture": {
          "index": 2
        },
        "metallicFactor": 0.0
      }
    },
    {
      "doubleSided": true,
      "name": "wire_086086086",
      "pbrMetallicRoughness": {
        "baseColorFactor": [
          0.3373,
          0.3373,
          0.3373,
          1.0
        ],
        "metallicFactor": 0.0,
        "roughnessFactor": 0.9167555019498095
      }
    },
    {
      "doubleSided": true,
      "name": "wire_115115115",
      "pbrMetallicRoughness": {
        "baseColorFactor": [
          0.451,
          0.451,
          0.451,
          1.0
        ],
        "metallicFactor": 0.0,
        "roughnessFactor": 0.9167555019498095
      }
    },
    {
      "doubleSided": true,
      "name": "wire_152116007",
      "pbrMetallicRoughness": {
        "baseColorFactor": [
          0.5961,
          0.4549,
          0.0275,
          1.0
        ],
        "metallicFactor": 0.0,
        "roughnessFactor": 0.9167555019498095
      }
    },
    {
      "doubleSided": true,
      "name": "wire_228184153",
      "pbrMetallicRoughness": {
        "baseColorFactor": [
          0.8464433773127846,
          0.8464433773127846,
          0.8464433773127846,
          1.0
        ],
        "roughnessFactor": 0.8292682926829268
      }
    }
  ],
  "meshes": [
    {
      "name": "Object_0",
      "primitives": [
        {
          "attributes": {
            "NORMAL": 1,
            "POSITION": 0,
            "TEXCOORD_0": 2
          },
          "indices": 3,
          "material": 0,
          "mode": 4
        }
      ]
    },
    {
      "name": "Object_1",
      "primitives": [
        {
          "attributes": {
            "NORMAL": 5,
            "POSITION": 4,
            "TEXCOORD_0": 6
          },
          "indices": 7,
          "material": 1,
          "mode": 4
        }
      ]
    },
    {
      "name": "Object_2",
      "primitives": [
        {
          "attributes": {
            "NORMAL": 9,
            "POSITION": 8,
            "TEXCOORD_0": 10
          },
          "indices": 11,
          "material": 2,
          "mode": 4
        }
      ]
    },
    {
      "name": "Object_3",
      "primitives": [
        {
          "attributes": {
            "NORMAL": 13,
            "POSITION": 12,
            "TEXCOORD_0": 14
          },
          "indices": 15,
          "material": 3,
          "mode": 4
        }
      ]
    },
    {
      "name": "Object_4",
      "primitives": [
        {
          "attributes": {
            "NORMAL": 17,
            "POSITION": 16,
            "TEXCOORD_0": 18
          },
          "indices": 19,
          "material": 4,
          "mode": 4
        }
      ]
    },
    {
      "name": "Object_5",
      "primitives": [
        {
          "attributes": {
            "NORMAL": 21,
            "POSITION": 20,
            "TEXCOORD_0": 22
          },
          "indices": 23,
          "material": 5,
          "mode": 4
        }
      ]
    },
    {
      "name": "Object_6",
      "primitives": [
        {
          "attributes": {
            "NORMAL": 25,
            "POSITION": 24,
            "TEXCOORD_0": 26
          },
          "indices": 27,
          "material": 6,
          "mode": 4
        }
      ]
    },
    {
      "name": "Object_7",
      "primitives": [
        {
          "attributes": {
            "NORMAL": 29,
            "POSITION": 28,
            "TEXCOORD_0": 30
          },
          "indices": 31,
          "material": 7,
          "mode": 4
        }
      ]
    }
  ],
  "nodes": [
    {
      "children": [
        1
      ],
      "matrix": [
        1.0,
        0.0,
        0.0,
        0.0,
        0.0,
        2.220446049250313e-16,
        -1.0,
        0.0,
        0.0,
        1.0,
        2.220446049250313e-16,
        0.0,
        0.0,
        0.0,
        0.0,
        1.0
      ],
      "name": "Sketchfab_model"
    },
    {
      "children": [
        2,
        3,
        4,
        5,
        6,
        7,
        8,
        9
      ],
      "name": "AINDA PREFIRO ANDROID.obj.cleaner.materialmerger.gles"
    },
    {
      "mesh": 0,
      "name": "Object_2"
    },
    {
      "mesh": 1,
      "name": "Object_3"
    },
    {
      "mesh": 2,
      "name": "Object_4"
    },
    {
      "mesh": 3,
      "name": "Object_5"
    },
    {
      "mesh": 4,
      "name": "Object_6"
    },
    {
      "mesh": 5,
      "name": "Object_7"
    },
    {
      "mesh": 6,
      "name": "Object_8"
    },
    {
      "mesh": 7,
      "name": "Object_9"
    }
  ],
  "samplers": [
    {
      "magFilter": 9729,
      "minFilter": 9987,
      "wrapS": 10497,
      "wrapT": 10497
    }
  ],
  "scene": 0,
  "scenes": [
    {
      "name": "Sketchfab_Scene",
      "nodes": [
        0
      ]
    }
  ],
  "textures": [
    {
      "sampler": 0,
      "source": 0
    },
    {
      "sampler": 0,
      "source": 1
    },
    {
      "sampler": 0,
      "source": 2
    }
  ]
}
